<mxfile host="app.diagrams.net" agent="Mozilla/5.0 (Windows NT 10.0; Win64; x64; rv:144.0) Gecko/20100101 Firefox/144.0" version="28.2.5">
  <diagram name="Page-1" id="gwHtqK4ijJzWARkYH_a7">
    <mxGraphModel dx="722" dy="1534" grid="1" gridSize="10" guides="1" tooltips="1" connect="1" arrows="1" fold="1" page="1" pageScale="1" pageWidth="827" pageHeight="1169" background="none" math="0" shadow="0">
      <root>
        <mxCell id="0" />
        <mxCell id="1" parent="0" />
        <mxCell id="x9E1pmyxvbZIwIWTpzgv-49" value="" style="shape=folder;fontStyle=1;spacingTop=10;tabWidth=40;tabHeight=14;tabPosition=left;html=1;whiteSpace=wrap;" parent="1" vertex="1">
          <mxGeometry x="220" width="200" height="490" as="geometry" />
        </mxCell>
        <mxCell id="x9E1pmyxvbZIwIWTpzgv-1" value="«Django»&lt;br&gt;&lt;b&gt;Server&lt;/b&gt;" style="html=1;dropTarget=0;whiteSpace=wrap;" parent="1" vertex="1">
          <mxGeometry x="250" y="150" width="140" height="60" as="geometry" />
        </mxCell>
        <mxCell id="x9E1pmyxvbZIwIWTpzgv-2" value="" style="shape=module;jettyWidth=8;jettyHeight=4;" parent="x9E1pmyxvbZIwIWTpzgv-1" vertex="1">
          <mxGeometry x="1" width="20" height="20" relative="1" as="geometry">
            <mxPoint x="-27" y="7" as="offset" />
          </mxGeometry>
        </mxCell>
        <mxCell id="x9E1pmyxvbZIwIWTpzgv-3" value="«React»&lt;div&gt;&lt;b&gt;Client&lt;/b&gt;&lt;/div&gt;" style="html=1;dropTarget=0;whiteSpace=wrap;" parent="1" vertex="1">
          <mxGeometry x="250" y="20" width="140" height="60" as="geometry" />
        </mxCell>
        <mxCell id="x9E1pmyxvbZIwIWTpzgv-4" value="" style="shape=module;jettyWidth=8;jettyHeight=4;" parent="x9E1pmyxvbZIwIWTpzgv-3" vertex="1">
          <mxGeometry x="1" width="20" height="20" relative="1" as="geometry">
            <mxPoint x="-27" y="7" as="offset" />
          </mxGeometry>
        </mxCell>
        <mxCell id="x9E1pmyxvbZIwIWTpzgv-5" value="«Django&#39;s»&lt;br&gt;&lt;b&gt;ORM&lt;/b&gt;" style="html=1;dropTarget=0;whiteSpace=wrap;" parent="1" vertex="1">
          <mxGeometry x="250" y="280" width="140" height="60" as="geometry" />
        </mxCell>
        <mxCell id="x9E1pmyxvbZIwIWTpzgv-6" value="" style="shape=module;jettyWidth=8;jettyHeight=4;" parent="x9E1pmyxvbZIwIWTpzgv-5" vertex="1">
          <mxGeometry x="1" width="20" height="20" relative="1" as="geometry">
            <mxPoint x="-27" y="7" as="offset" />
          </mxGeometry>
        </mxCell>
        <mxCell id="x9E1pmyxvbZIwIWTpzgv-7" value="«PostgreSQL»&lt;br&gt;&lt;b&gt;DB&lt;/b&gt;" style="html=1;dropTarget=0;whiteSpace=wrap;" parent="1" vertex="1">
          <mxGeometry x="250" y="410" width="140" height="60" as="geometry" />
        </mxCell>
        <mxCell id="x9E1pmyxvbZIwIWTpzgv-8" value="" style="shape=module;jettyWidth=8;jettyHeight=4;" parent="x9E1pmyxvbZIwIWTpzgv-7" vertex="1">
          <mxGeometry x="1" width="20" height="20" relative="1" as="geometry">
            <mxPoint x="-27" y="7" as="offset" />
          </mxGeometry>
        </mxCell>
        <mxCell id="x9E1pmyxvbZIwIWTpzgv-15" value="" style="ellipse;whiteSpace=wrap;html=1;align=center;aspect=fixed;fillColor=none;strokeColor=none;resizable=0;perimeter=centerPerimeter;rotatable=0;allowArrows=0;points=[];outlineConnect=1;" parent="1" vertex="1">
          <mxGeometry x="310" y="110" width="10" height="10" as="geometry" />
        </mxCell>
        <mxCell id="x9E1pmyxvbZIwIWTpzgv-16" value="" style="rounded=0;orthogonalLoop=1;jettySize=auto;html=1;endArrow=halfCircle;endFill=0;endSize=6;strokeWidth=1;sketch=0;exitX=0.5;exitY=1;exitDx=0;exitDy=0;entryX=0.833;entryY=-0.079;entryDx=0;entryDy=0;entryPerimeter=0;" parent="1" source="x9E1pmyxvbZIwIWTpzgv-3" target="x9E1pmyxvbZIwIWTpzgv-15" edge="1">
          <mxGeometry relative="1" as="geometry">
            <mxPoint x="380" y="115" as="sourcePoint" />
            <mxPoint x="330" y="110" as="targetPoint" />
          </mxGeometry>
        </mxCell>
        <mxCell id="x9E1pmyxvbZIwIWTpzgv-39" value="REST API" style="edgeLabel;html=1;align=center;verticalAlign=middle;resizable=0;points=[];" parent="x9E1pmyxvbZIwIWTpzgv-16" vertex="1" connectable="0">
          <mxGeometry x="-0.1748" y="-1" relative="1" as="geometry">
            <mxPoint as="offset" />
          </mxGeometry>
        </mxCell>
        <mxCell id="x9E1pmyxvbZIwIWTpzgv-17" value="" style="rounded=0;orthogonalLoop=1;jettySize=auto;html=1;endArrow=oval;endFill=0;sketch=0;sourcePerimeterSpacing=0;targetPerimeterSpacing=0;endSize=10;exitX=0.5;exitY=0;exitDx=0;exitDy=0;entryX=0.736;entryY=0.018;entryDx=0;entryDy=0;entryPerimeter=0;" parent="1" source="x9E1pmyxvbZIwIWTpzgv-1" target="x9E1pmyxvbZIwIWTpzgv-15" edge="1">
          <mxGeometry relative="1" as="geometry">
            <mxPoint x="340" y="115" as="sourcePoint" />
            <mxPoint x="330" y="110" as="targetPoint" />
          </mxGeometry>
        </mxCell>
        <mxCell id="x9E1pmyxvbZIwIWTpzgv-18" value="" style="ellipse;whiteSpace=wrap;html=1;align=center;aspect=fixed;fillColor=none;strokeColor=none;resizable=0;perimeter=centerPerimeter;rotatable=0;allowArrows=0;points=[];outlineConnect=1;" parent="1" vertex="1">
          <mxGeometry x="355" y="110" width="10" height="10" as="geometry" />
        </mxCell>
        <mxCell id="x9E1pmyxvbZIwIWTpzgv-34" value="" style="ellipse;whiteSpace=wrap;html=1;align=center;aspect=fixed;fillColor=none;strokeColor=none;resizable=0;perimeter=centerPerimeter;rotatable=0;allowArrows=0;points=[];outlineConnect=1;" parent="1" vertex="1">
          <mxGeometry x="370" y="140" width="10" height="10" as="geometry" />
        </mxCell>
        <mxCell id="x9E1pmyxvbZIwIWTpzgv-41" value="" style="rounded=0;orthogonalLoop=1;jettySize=auto;html=1;endArrow=halfCircle;endFill=0;endSize=6;strokeWidth=1;sketch=0;exitX=0.5;exitY=1;exitDx=0;exitDy=0;" parent="1" source="x9E1pmyxvbZIwIWTpzgv-1" edge="1">
          <mxGeometry relative="1" as="geometry">
            <mxPoint x="140" y="205" as="sourcePoint" />
            <mxPoint x="320" y="240" as="targetPoint" />
          </mxGeometry>
        </mxCell>
        <mxCell id="x9E1pmyxvbZIwIWTpzgv-42" value="" style="rounded=0;orthogonalLoop=1;jettySize=auto;html=1;endArrow=oval;endFill=0;sketch=0;sourcePerimeterSpacing=0;targetPerimeterSpacing=0;endSize=10;exitX=0.5;exitY=0;exitDx=0;exitDy=0;" parent="1" source="x9E1pmyxvbZIwIWTpzgv-5" edge="1">
          <mxGeometry relative="1" as="geometry">
            <mxPoint x="100" y="205" as="sourcePoint" />
            <mxPoint x="320" y="240" as="targetPoint" />
          </mxGeometry>
        </mxCell>
        <mxCell id="x9E1pmyxvbZIwIWTpzgv-44" value="&lt;div&gt;Data access&lt;/div&gt;" style="edgeLabel;html=1;align=center;verticalAlign=middle;resizable=0;points=[];" parent="x9E1pmyxvbZIwIWTpzgv-42" vertex="1" connectable="0">
          <mxGeometry x="0.0179" y="1" relative="1" as="geometry">
            <mxPoint as="offset" />
          </mxGeometry>
        </mxCell>
        <mxCell id="x9E1pmyxvbZIwIWTpzgv-45" value="" style="rounded=0;orthogonalLoop=1;jettySize=auto;html=1;endArrow=halfCircle;endFill=0;endSize=6;strokeWidth=1;sketch=0;exitX=0.5;exitY=1;exitDx=0;exitDy=0;" parent="1" source="x9E1pmyxvbZIwIWTpzgv-5" edge="1">
          <mxGeometry relative="1" as="geometry">
            <mxPoint x="360" y="395" as="sourcePoint" />
            <mxPoint x="320" y="380" as="targetPoint" />
          </mxGeometry>
        </mxCell>
        <mxCell id="x9E1pmyxvbZIwIWTpzgv-46" value="" style="rounded=0;orthogonalLoop=1;jettySize=auto;html=1;endArrow=oval;endFill=0;sketch=0;sourcePerimeterSpacing=0;targetPerimeterSpacing=0;endSize=10;exitX=0.5;exitY=0;exitDx=0;exitDy=0;" parent="1" source="x9E1pmyxvbZIwIWTpzgv-7" edge="1">
          <mxGeometry relative="1" as="geometry">
            <mxPoint x="320" y="395" as="sourcePoint" />
            <mxPoint x="320" y="380" as="targetPoint" />
          </mxGeometry>
        </mxCell>
        <mxCell id="x9E1pmyxvbZIwIWTpzgv-48" value="Data access" style="edgeLabel;html=1;align=center;verticalAlign=middle;resizable=0;points=[];" parent="x9E1pmyxvbZIwIWTpzgv-46" vertex="1" connectable="0">
          <mxGeometry x="0.094" relative="1" as="geometry">
            <mxPoint as="offset" />
          </mxGeometry>
        </mxCell>
        <mxCell id="x9E1pmyxvbZIwIWTpzgv-47" value="" style="ellipse;whiteSpace=wrap;html=1;align=center;aspect=fixed;fillColor=none;strokeColor=none;resizable=0;perimeter=centerPerimeter;rotatable=0;allowArrows=0;points=[];outlineConnect=1;" parent="1" vertex="1">
          <mxGeometry x="335" y="390" width="10" height="10" as="geometry" />
        </mxCell>
        <mxCell id="x9E1pmyxvbZIwIWTpzgv-50" value="Our webiste" style="text;align=center;fontStyle=1;verticalAlign=middle;spacingLeft=3;spacingRight=3;strokeColor=none;rotatable=0;points=[[0,0.5],[1,0.5]];portConstraint=eastwest;html=1;" parent="1" vertex="1">
          <mxGeometry x="220" y="-6" width="80" height="26" as="geometry" />
        </mxCell>
        <mxCell id="x9E1pmyxvbZIwIWTpzgv-65" value="" style="ellipse;whiteSpace=wrap;html=1;align=center;aspect=fixed;fillColor=none;strokeColor=none;resizable=0;perimeter=centerPerimeter;rotatable=0;allowArrows=0;points=[];outlineConnect=1;" parent="1" vertex="1">
          <mxGeometry x="180" y="210" width="10" height="10" as="geometry" />
        </mxCell>
      </root>
    </mxGraphModel>
  </diagram>
</mxfile>
